<svg width="173" height="284" viewBox="0 0 173 284" fill="none" xmlns="http://www.w3.org/2000/svg">
<g clip-path="url(#clip0_12_7319)">
<path d="M36.6852 162.481V101.451C41.8722 98.0348 45.2659 92.5835 45.2659 86.4539C45.2659 76.0843 35.6919 67.6772 23.8831 67.6772C12.0742 67.6772 2.50024 76.0843 2.50024 86.4539C2.50024 92.6078 5.86631 98.0348 11.081 101.451V162.481L37.3198 182.711H62.924L36.6852 162.481Z" fill="#1173FF"/>
<path d="M91.9494 162.481V72.8378C97.1365 69.4216 100.53 63.9704 100.53 57.8407C100.53 47.4712 90.9562 39.0641 79.1473 39.0641C67.3385 39.0641 57.7645 47.4712 57.7645 57.8407C57.7645 63.9946 61.1306 69.4216 66.3452 72.8378V162.505L92.584 182.736H118.188L91.9494 162.481Z" fill="#0C0F27"/>
<path d="M144.261 162.481V34.5093C149.449 31.0932 152.842 25.6419 152.842 19.5122C152.842 9.14268 143.268 0.735596 131.459 0.735596C119.651 0.735596 110.077 9.14268 110.077 19.5122C110.077 25.6661 113.443 31.0932 118.657 34.5093V162.481L144.896 182.711H170.5L144.261 162.481Z" fill="#FFAF15"/>
</g>
<path d="M25.1736 216.206C28.7443 216.206 31.899 217.073 34.6376 218.806C37.411 220.505 39.543 222.879 41.0336 225.93C42.559 228.981 43.3216 232.43 43.3216 236.278C43.3216 240.23 42.1603 243.887 39.8376 247.25C37.5496 250.578 34.6896 253.23 31.2576 255.206C27.8603 257.147 24.6016 258.118 21.4816 258.118C19.887 258.118 18.275 258.031 16.6456 257.858C13.9763 257.685 11.9136 257.598 10.4576 257.598H3.85364V255.986L8.74164 252.138V220.522L3.33364 218.754L4.37364 216.674H10.4056C13.699 216.674 16.9056 216.57 20.0256 216.362C22.383 216.223 24.099 216.154 25.1736 216.154V216.206ZM22.9376 254.27C25.4336 254.27 27.7043 253.611 29.7496 252.294C31.795 250.942 33.3896 249.087 34.5336 246.73C35.7123 244.338 36.3016 241.669 36.3016 238.722C36.3016 235.186 35.747 231.979 34.6376 229.102C33.5283 226.19 31.8296 223.867 29.5416 222.134C27.2883 220.401 24.4803 219.534 21.1176 219.534C19.003 219.534 17.0443 220.158 15.2416 221.406V252.97C17.3563 253.837 19.9216 254.27 22.9376 254.27ZM91.1446 257.546H75.3366V255.934L80.2246 252.138L76.2206 242.518H58.7486L54.4846 252.346L63.6366 255.466L62.5966 257.546H46.7886V255.934L51.6766 252.086L66.3926 218.338L71.8006 215.686L86.9846 252.294L92.1846 255.466L91.1446 257.546ZM67.6926 221.926L59.7886 240.178H75.2846L67.6926 221.926ZM127.143 228.738L125.583 229.258L118.667 219.014H112.323V253.594L117.783 255.466L116.743 257.546H100.935V255.934L105.823 252.086V219.014H99.6348L92.7188 229.258L91.1588 228.738V215.738L93.9668 216.674H124.335L127.143 215.738V228.738ZM168.738 257.546H152.93V255.934L157.818 252.138L153.814 242.518H136.342L132.078 252.346L141.23 255.466L140.19 257.546H124.382V255.934L129.27 252.086L143.986 218.338L149.394 215.686L164.578 252.294L169.778 255.466L168.738 257.546ZM145.286 221.926L137.382 240.178H152.878L145.286 221.926Z" fill="url(#paint0_linear_12_7319)"/>
<path d="M26.86 268.019V269.414H24.085V278.444H22.375V269.414H19.585V268.019H26.86ZM28.0218 274.274C28.0218 273.444 28.1918 272.709 28.5318 272.069C28.8818 271.429 29.3518 270.934 29.9418 270.584C30.5418 270.224 31.2018 270.044 31.9218 270.044C32.5718 270.044 33.1368 270.174 33.6168 270.434C34.1068 270.684 34.4968 270.999 34.7868 271.379V270.179H36.5118V278.444H34.7868V277.214C34.4968 277.604 34.1018 277.929 33.6018 278.189C33.1018 278.449 32.5318 278.579 31.8918 278.579C31.1818 278.579 30.5318 278.399 29.9418 278.039C29.3518 277.669 28.8818 277.159 28.5318 276.509C28.1918 275.849 28.0218 275.104 28.0218 274.274ZM34.7868 274.304C34.7868 273.734 34.6668 273.239 34.4268 272.819C34.1968 272.399 33.8918 272.079 33.5118 271.859C33.1318 271.639 32.7218 271.529 32.2818 271.529C31.8418 271.529 31.4318 271.639 31.0518 271.859C30.6718 272.069 30.3618 272.384 30.1218 272.804C29.8918 273.214 29.7768 273.704 29.7768 274.274C29.7768 274.844 29.8918 275.344 30.1218 275.774C30.3618 276.204 30.6718 276.534 31.0518 276.764C31.4418 276.984 31.8518 277.094 32.2818 277.094C32.7218 277.094 33.1318 276.984 33.5118 276.764C33.8918 276.544 34.1968 276.224 34.4268 275.804C34.6668 275.374 34.7868 274.874 34.7868 274.304ZM42.0878 270.044C42.7278 270.044 43.2928 270.174 43.7828 270.434C44.2828 270.684 44.6728 270.999 44.9528 271.379V270.179H46.6778V278.579C46.6778 279.339 46.5178 280.014 46.1978 280.604C45.8778 281.204 45.4128 281.674 44.8028 282.014C44.2028 282.354 43.4828 282.524 42.6428 282.524C41.5228 282.524 40.5928 282.259 39.8528 281.729C39.1128 281.209 38.6928 280.499 38.5928 279.599H40.2878C40.4178 280.029 40.6928 280.374 41.1128 280.634C41.5428 280.904 42.0528 281.039 42.6428 281.039C43.3328 281.039 43.8878 280.829 44.3078 280.409C44.7378 279.989 44.9528 279.379 44.9528 278.579V277.199C44.6628 277.589 44.2678 277.919 43.7678 278.189C43.2778 278.449 42.7178 278.579 42.0878 278.579C41.3678 278.579 40.7078 278.399 40.1078 278.039C39.5178 277.669 39.0478 277.159 38.6978 276.509C38.3578 275.849 38.1878 275.104 38.1878 274.274C38.1878 273.444 38.3578 272.709 38.6978 272.069C39.0478 271.429 39.5178 270.934 40.1078 270.584C40.7078 270.224 41.3678 270.044 42.0878 270.044ZM44.9528 274.304C44.9528 273.734 44.8328 273.239 44.5928 272.819C44.3628 272.399 44.0578 272.079 43.6778 271.859C43.2978 271.639 42.8878 271.529 42.4478 271.529C42.0078 271.529 41.5978 271.639 41.2178 271.859C40.8378 272.069 40.5278 272.384 40.2878 272.804C40.0578 273.214 39.9428 273.704 39.9428 274.274C39.9428 274.844 40.0578 275.344 40.2878 275.774C40.5278 276.204 40.8378 276.534 41.2178 276.764C41.6078 276.984 42.0178 277.094 42.4478 277.094C42.8878 277.094 43.2978 276.984 43.6778 276.764C44.0578 276.544 44.3628 276.224 44.5928 275.804C44.8328 275.374 44.9528 274.874 44.9528 274.304ZM50.6338 267.344V278.444H48.9238V267.344H50.6338ZM53.7489 269.084C53.4389 269.084 53.1789 268.979 52.9689 268.769C52.7589 268.559 52.6539 268.299 52.6539 267.989C52.6539 267.679 52.7589 267.419 52.9689 267.209C53.1789 266.999 53.4389 266.894 53.7489 266.894C54.0489 266.894 54.3039 266.999 54.5139 267.209C54.7239 267.419 54.8289 267.679 54.8289 267.989C54.8289 268.299 54.7239 268.559 54.5139 268.769C54.3039 268.979 54.0489 269.084 53.7489 269.084ZM54.5889 270.179V278.444H52.8789V270.179H54.5889ZM61.004 270.044C61.654 270.044 62.234 270.179 62.744 270.449C63.264 270.719 63.669 271.119 63.959 271.649C64.249 272.179 64.394 272.819 64.394 273.569V278.444H62.699V273.824C62.699 273.084 62.514 272.519 62.144 272.129C61.774 271.729 61.269 271.529 60.629 271.529C59.989 271.529 59.479 271.729 59.099 272.129C58.729 272.519 58.544 273.084 58.544 273.824V278.444H56.834V270.179H58.544V271.124C58.824 270.784 59.179 270.519 59.609 270.329C60.049 270.139 60.514 270.044 61.004 270.044ZM74.1502 274.109C74.1502 274.419 74.1302 274.699 74.0902 274.949H67.7752C67.8252 275.609 68.0702 276.139 68.5102 276.539C68.9502 276.939 69.4902 277.139 70.1302 277.139C71.0502 277.139 71.7002 276.754 72.0802 275.984H73.9252C73.6752 276.744 73.2202 277.369 72.5602 277.859C71.9102 278.339 71.1002 278.579 70.1302 278.579C69.3402 278.579 68.6302 278.404 68.0002 278.054C67.3802 277.694 66.8902 277.194 66.5302 276.554C66.1802 275.904 66.0052 275.154 66.0052 274.304C66.0052 273.454 66.1752 272.709 66.5152 272.069C66.8652 271.419 67.3502 270.919 67.9702 270.569C68.6002 270.219 69.3202 270.044 70.1302 270.044C70.9102 270.044 71.6052 270.214 72.2152 270.554C72.8252 270.894 73.3002 271.374 73.6402 271.994C73.9802 272.604 74.1502 273.309 74.1502 274.109ZM72.3652 273.569C72.3552 272.939 72.1302 272.434 71.6902 272.054C71.2502 271.674 70.7052 271.484 70.0552 271.484C69.4652 271.484 68.9602 271.674 68.5402 272.054C68.1202 272.424 67.8702 272.929 67.7902 273.569H72.3652ZM83.0595 270.044C83.6995 270.044 84.2645 270.174 84.7545 270.434C85.2545 270.684 85.6445 270.999 85.9245 271.379V270.179H87.6495V278.579C87.6495 279.339 87.4895 280.014 87.1695 280.604C86.8495 281.204 86.3845 281.674 85.7745 282.014C85.1745 282.354 84.4545 282.524 83.6145 282.524C82.4945 282.524 81.5645 282.259 80.8245 281.729C80.0845 281.209 79.6645 280.499 79.5645 279.599H81.2595C81.3895 280.029 81.6645 280.374 82.0845 280.634C82.5145 280.904 83.0245 281.039 83.6145 281.039C84.3045 281.039 84.8595 280.829 85.2795 280.409C85.7095 279.989 85.9245 279.379 85.9245 278.579V277.199C85.6345 277.589 85.2395 277.919 84.7395 278.189C84.2495 278.449 83.6895 278.579 83.0595 278.579C82.3395 278.579 81.6795 278.399 81.0795 278.039C80.4895 277.669 80.0195 277.159 79.6695 276.509C79.3295 275.849 79.1595 275.104 79.1595 274.274C79.1595 273.444 79.3295 272.709 79.6695 272.069C80.0195 271.429 80.4895 270.934 81.0795 270.584C81.6795 270.224 82.3395 270.044 83.0595 270.044ZM85.9245 274.304C85.9245 273.734 85.8045 273.239 85.5645 272.819C85.3345 272.399 85.0295 272.079 84.6495 271.859C84.2695 271.639 83.8595 271.529 83.4195 271.529C82.9795 271.529 82.5695 271.639 82.1895 271.859C81.8095 272.069 81.4995 272.384 81.2595 272.804C81.0295 273.214 80.9145 273.704 80.9145 274.274C80.9145 274.844 81.0295 275.344 81.2595 275.774C81.4995 276.204 81.8095 276.534 82.1895 276.764C82.5795 276.984 82.9895 277.094 83.4195 277.094C83.8595 277.094 84.2695 276.984 84.6495 276.764C85.0295 276.544 85.3345 276.224 85.5645 275.804C85.8045 275.374 85.9245 274.874 85.9245 274.304ZM93.4805 278.579C92.7005 278.579 91.9955 278.404 91.3655 278.054C90.7355 277.694 90.2405 277.194 89.8805 276.554C89.5205 275.904 89.3405 275.154 89.3405 274.304C89.3405 273.464 89.5255 272.719 89.8955 272.069C90.2655 271.419 90.7705 270.919 91.4105 270.569C92.0505 270.219 92.7655 270.044 93.5555 270.044C94.3455 270.044 95.0605 270.219 95.7005 270.569C96.3405 270.919 96.8455 271.419 97.2155 272.069C97.5855 272.719 97.7705 273.464 97.7705 274.304C97.7705 275.144 97.5805 275.889 97.2005 276.539C96.8205 277.189 96.3005 277.694 95.6405 278.054C94.9905 278.404 94.2705 278.579 93.4805 278.579ZM93.4805 277.094C93.9205 277.094 94.3305 276.989 94.7105 276.779C95.1005 276.569 95.4155 276.254 95.6555 275.834C95.8955 275.414 96.0155 274.904 96.0155 274.304C96.0155 273.704 95.9005 273.199 95.6705 272.789C95.4405 272.369 95.1355 272.054 94.7555 271.844C94.3755 271.634 93.9655 271.529 93.5255 271.529C93.0855 271.529 92.6755 271.634 92.2955 271.844C91.9255 272.054 91.6305 272.369 91.4105 272.789C91.1905 273.199 91.0805 273.704 91.0805 274.304C91.0805 275.194 91.3055 275.884 91.7555 276.374C92.2155 276.854 92.7905 277.094 93.4805 277.094ZM107.036 274.109C107.036 274.419 107.016 274.699 106.976 274.949H100.661C100.711 275.609 100.956 276.139 101.396 276.539C101.836 276.939 102.376 277.139 103.016 277.139C103.936 277.139 104.586 276.754 104.966 275.984H106.811C106.561 276.744 106.106 277.369 105.446 277.859C104.796 278.339 103.986 278.579 103.016 278.579C102.226 278.579 101.516 278.404 100.886 278.054C100.266 277.694 99.7759 277.194 99.4159 276.554C99.0659 275.904 98.8909 275.154 98.8909 274.304C98.8909 273.454 99.0609 272.709 99.4009 272.069C99.7509 271.419 100.236 270.919 100.856 270.569C101.486 270.219 102.206 270.044 103.016 270.044C103.796 270.044 104.491 270.214 105.101 270.554C105.711 270.894 106.186 271.374 106.526 271.994C106.866 272.604 107.036 273.309 107.036 274.109ZM105.251 273.569C105.241 272.939 105.016 272.434 104.576 272.054C104.136 271.674 103.591 271.484 102.941 271.484C102.351 271.484 101.846 271.674 101.426 272.054C101.006 272.424 100.756 272.929 100.676 273.569H105.251ZM111.719 278.579C111.069 278.579 110.484 278.464 109.964 278.234C109.454 277.994 109.049 277.674 108.749 277.274C108.449 276.864 108.289 276.409 108.269 275.909H110.039C110.069 276.259 110.234 276.554 110.534 276.794C110.844 277.024 111.229 277.139 111.689 277.139C112.169 277.139 112.539 277.049 112.799 276.869C113.069 276.679 113.204 276.439 113.204 276.149C113.204 275.839 113.054 275.609 112.754 275.459C112.464 275.309 111.999 275.144 111.359 274.964C110.739 274.794 110.234 274.629 109.844 274.469C109.454 274.309 109.114 274.064 108.824 273.734C108.544 273.404 108.404 272.969 108.404 272.429C108.404 271.989 108.534 271.589 108.794 271.229C109.054 270.859 109.424 270.569 109.904 270.359C110.394 270.149 110.954 270.044 111.584 270.044C112.524 270.044 113.279 270.284 113.849 270.764C114.429 271.234 114.739 271.879 114.779 272.699H113.069C113.039 272.329 112.889 272.034 112.619 271.814C112.349 271.594 111.984 271.484 111.524 271.484C111.074 271.484 110.729 271.569 110.489 271.739C110.249 271.909 110.129 272.134 110.129 272.414C110.129 272.634 110.209 272.819 110.369 272.969C110.529 273.119 110.724 273.239 110.954 273.329C111.184 273.409 111.524 273.514 111.974 273.644C112.574 273.804 113.064 273.969 113.444 274.139C113.834 274.299 114.169 274.539 114.449 274.859C114.729 275.179 114.874 275.604 114.884 276.134C114.884 276.604 114.754 277.024 114.494 277.394C114.234 277.764 113.864 278.054 113.384 278.264C112.914 278.474 112.359 278.579 111.719 278.579ZM124.903 270.044C125.533 270.044 126.093 270.179 126.583 270.449C127.083 270.719 127.473 271.119 127.753 271.649C128.043 272.179 128.188 272.819 128.188 273.569V278.444H126.493V273.824C126.493 273.084 126.308 272.519 125.938 272.129C125.568 271.729 125.063 271.529 124.423 271.529C123.783 271.529 123.273 271.729 122.893 272.129C122.523 272.519 122.338 273.084 122.338 273.824V278.444H120.628V267.344H122.338V271.139C122.628 270.789 122.993 270.519 123.433 270.329C123.883 270.139 124.373 270.044 124.903 270.044ZM137.944 274.109C137.944 274.419 137.924 274.699 137.884 274.949H131.569C131.619 275.609 131.864 276.139 132.304 276.539C132.744 276.939 133.284 277.139 133.924 277.139C134.844 277.139 135.494 276.754 135.874 275.984H137.719C137.469 276.744 137.014 277.369 136.354 277.859C135.704 278.339 134.894 278.579 133.924 278.579C133.134 278.579 132.424 278.404 131.794 278.054C131.174 277.694 130.684 277.194 130.324 276.554C129.974 275.904 129.799 275.154 129.799 274.304C129.799 273.454 129.969 272.709 130.309 272.069C130.659 271.419 131.144 270.919 131.764 270.569C132.394 270.219 133.114 270.044 133.924 270.044C134.704 270.044 135.399 270.214 136.009 270.554C136.619 270.894 137.094 271.374 137.434 271.994C137.774 272.604 137.944 273.309 137.944 274.109ZM136.159 273.569C136.149 272.939 135.924 272.434 135.484 272.054C135.044 271.674 134.499 271.484 133.849 271.484C133.259 271.484 132.754 271.674 132.334 272.054C131.914 272.424 131.664 272.929 131.584 273.569H136.159ZM141.337 271.379C141.587 270.959 141.917 270.634 142.327 270.404C142.747 270.164 143.242 270.044 143.812 270.044V271.814H143.377C142.707 271.814 142.197 271.984 141.847 272.324C141.507 272.664 141.337 273.254 141.337 274.094V278.444H139.627V270.179H141.337V271.379ZM152.959 274.109C152.959 274.419 152.939 274.699 152.899 274.949H146.584C146.634 275.609 146.879 276.139 147.319 276.539C147.759 276.939 148.299 277.139 148.939 277.139C149.859 277.139 150.509 276.754 150.889 275.984H152.734C152.484 276.744 152.029 277.369 151.369 277.859C150.719 278.339 149.909 278.579 148.939 278.579C148.149 278.579 147.439 278.404 146.809 278.054C146.189 277.694 145.699 277.194 145.339 276.554C144.989 275.904 144.814 275.154 144.814 274.304C144.814 273.454 144.984 272.709 145.324 272.069C145.674 271.419 146.159 270.919 146.779 270.569C147.409 270.219 148.129 270.044 148.939 270.044C149.719 270.044 150.414 270.214 151.024 270.554C151.634 270.894 152.109 271.374 152.449 271.994C152.789 272.604 152.959 273.309 152.959 274.109ZM151.174 273.569C151.164 272.939 150.939 272.434 150.499 272.054C150.059 271.674 149.514 271.484 148.864 271.484C148.274 271.484 147.769 271.674 147.349 272.054C146.929 272.424 146.679 272.929 146.599 273.569H151.174Z" fill="#064299"/>
<defs>
<linearGradient id="paint0_linear_12_7319" x1="86.5" y1="214.995" x2="86.5" y2="261.444" gradientUnits="userSpaceOnUse">
<stop stop-color="#1173FF"/>
<stop offset="0.484375" stop-color="#0C0F27"/>
<stop offset="1" stop-color="#FFAF15"/>
</linearGradient>
<clipPath id="clip0_12_7319">
<rect width="168" height="182" fill="white" transform="translate(2.50024 0.735596)"/>
</clipPath>
</defs>
</svg>
